<?xml version="1.0" encoding="utf-8" standalone="no"?>
<!DOCTYPE svg PUBLIC "-//W3C//DTD SVG 1.1//EN"
  "http://www.w3.org/Graphics/SVG/1.1/DTD/svg11.dtd">
<!-- Created with matplotlib (https://matplotlib.org/) -->
<svg height="333.807pt" version="1.1" viewBox="0 0 572.321 333.807" width="572.321pt" xmlns="http://www.w3.org/2000/svg" xmlns:xlink="http://www.w3.org/1999/xlink">
 <defs>
  <style type="text/css">
*{stroke-linecap:butt;stroke-linejoin:round;}
  </style>
 </defs>
 <g id="figure_1">
  <g id="patch_1">
   <path d="M 0 333.807 
L 572.321 333.807 
L 572.321 0 
L 0 0 
z
" style="fill:#ffffff;"/>
  </g>
  <g id="axes_1">
   <g id="patch_2">
    <path d="M 59.13 273.312 
L 416.25 273.312 
L 416.25 7.2 
L 59.13 7.2 
z
" style="fill:#ffffff;"/>
   </g>
   <g id="patch_3">
    <path clip-path="url(#p5012f268b0)" d="M 103.77 273.312 
L 193.05 273.312 
L 193.05 238.680447 
L 103.77 238.680447 
z
" style="fill:#1f77b4;"/>
   </g>
   <g id="patch_4">
    <path clip-path="url(#p5012f268b0)" d="M 282.33 273.312 
L 371.61 273.312 
L 371.61 210.648264 
L 282.33 210.648264 
z
" style="fill:#1f77b4;"/>
   </g>
   <g id="patch_5">
    <path clip-path="url(#p5012f268b0)" d="M 103.77 238.680447 
L 193.05 238.680447 
L 193.05 202.474733 
L 103.77 202.474733 
z
" style="fill:#ff7f0e;"/>
   </g>
   <g id="patch_6">
    <path clip-path="url(#p5012f268b0)" d="M 282.33 210.648264 
L 371.61 210.648264 
L 371.61 198.115516 
L 282.33 198.115516 
z
" style="fill:#ff7f0e;"/>
   </g>
   <g id="patch_7">
    <path clip-path="url(#p5012f268b0)" d="M 103.77 202.474733 
L 193.05 202.474733 
L 193.05 177.288149 
L 103.77 177.288149 
z
" style="fill:#2ca02c;"/>
   </g>
   <g id="patch_8">
    <path clip-path="url(#p5012f268b0)" d="M 282.33 198.115516 
L 371.61 198.115516 
L 371.61 175.835077 
L 282.33 175.835077 
z
" style="fill:#2ca02c;"/>
   </g>
   <g id="patch_9">
    <path clip-path="url(#p5012f268b0)" d="M 103.77 177.288149 
L 193.05 177.288149 
L 193.05 170.991503 
L 103.77 170.991503 
z
" style="fill:#d62728;"/>
   </g>
   <g id="patch_10">
    <path clip-path="url(#p5012f268b0)" d="M 282.33 175.835077 
L 371.61 175.835077 
L 371.61 146.592 
L 282.33 146.592 
z
" style="fill:#d62728;"/>
   </g>
   <g id="patch_11">
    <path clip-path="url(#p5012f268b0)" d="M 103.77 170.991503 
L 193.05 170.991503 
L 193.05 163.120696 
L 103.77 163.120696 
z
" style="fill:#9467bd;"/>
   </g>
   <g id="patch_12">
    <path clip-path="url(#p5012f268b0)" d="M 282.33 146.592 
L 371.61 146.592 
L 371.61 127.096615 
L 282.33 127.096615 
z
" style="fill:#9467bd;"/>
   </g>
   <g id="patch_13">
    <path clip-path="url(#p5012f268b0)" d="M 103.77 273.312 
L 193.05 273.312 
L 193.05 273.312 
L 103.77 273.312 
z
" style="fill:#8c564b;"/>
   </g>
   <g id="patch_14">
    <path clip-path="url(#p5012f268b0)" d="M 282.33 127.096615 
L 371.61 127.096615 
L 371.61 104.816176 
L 282.33 104.816176 
z
" style="fill:#8c564b;"/>
   </g>
   <g id="patch_15">
    <path clip-path="url(#p5012f268b0)" d="M 103.77 163.120696 
L 193.05 163.120696 
L 193.05 152.101565 
L 103.77 152.101565 
z
" style="fill:#e377c2;"/>
   </g>
   <g id="patch_16">
    <path clip-path="url(#p5012f268b0)" d="M 282.33 104.816176 
L 371.61 104.816176 
L 371.61 92.283429 
L 282.33 92.283429 
z
" style="fill:#e377c2;"/>
   </g>
   <g id="patch_17">
    <path clip-path="url(#p5012f268b0)" d="M 103.77 152.101565 
L 193.05 152.101565 
L 193.05 145.804919 
L 103.77 145.804919 
z
" style="fill:#bcbd22;"/>
   </g>
   <g id="patch_18">
    <path clip-path="url(#p5012f268b0)" d="M 282.33 92.283429 
L 371.61 92.283429 
L 371.61 79.750681 
L 282.33 79.750681 
z
" style="fill:#bcbd22;"/>
   </g>
   <g id="patch_19">
    <path clip-path="url(#p5012f268b0)" d="M 103.77 145.804919 
L 193.05 145.804919 
L 193.05 134.785789 
L 103.77 134.785789 
z
" style="fill:#17becf;"/>
   </g>
   <g id="patch_20">
    <path clip-path="url(#p5012f268b0)" d="M 282.33 79.750681 
L 371.61 79.750681 
L 371.61 75.573099 
L 282.33 75.573099 
z
" style="fill:#17becf;"/>
   </g>
   <g id="patch_21">
    <path clip-path="url(#p5012f268b0)" d="M 103.77 134.785789 
L 193.05 134.785789 
L 193.05 125.34082 
L 103.77 125.34082 
z
" style="fill:#4f5b66;"/>
   </g>
   <g id="patch_22">
    <path clip-path="url(#p5012f268b0)" d="M 282.33 75.573099 
L 371.61 75.573099 
L 371.61 71.395516 
L 282.33 71.395516 
z
" style="fill:#4f5b66;"/>
   </g>
   <g id="patch_23">
    <path clip-path="url(#p5012f268b0)" d="M 103.77 125.34082 
L 193.05 125.34082 
L 193.05 119.044174 
L 103.77 119.044174 
z
" style="fill:#65737e;"/>
   </g>
   <g id="patch_24">
    <path clip-path="url(#p5012f268b0)" d="M 282.33 71.395516 
L 371.61 71.395516 
L 371.61 65.825407 
L 282.33 65.825407 
z
" style="fill:#65737e;"/>
   </g>
   <g id="patch_25">
    <path clip-path="url(#p5012f268b0)" d="M 103.77 119.044174 
L 193.05 119.044174 
L 193.05 117.470012 
L 103.77 117.470012 
z
" style="fill:#a7adba;"/>
   </g>
   <g id="patch_26">
    <path clip-path="url(#p5012f268b0)" d="M 282.33 65.825407 
L 371.61 65.825407 
L 371.61 58.862769 
L 282.33 58.862769 
z
" style="fill:#a7adba;"/>
   </g>
   <g id="patch_27">
    <path clip-path="url(#p5012f268b0)" d="M 103.77 117.470012 
L 193.05 117.470012 
L 193.05 108.025043 
L 103.77 108.025043 
z
" style="fill:#c0c5ce;"/>
   </g>
   <g id="patch_28">
    <path clip-path="url(#p5012f268b0)" d="M 282.33 273.312 
L 371.61 273.312 
L 371.61 273.312 
L 282.33 273.312 
z
" style="fill:#c0c5ce;"/>
   </g>
   <g id="patch_29">
    <path clip-path="url(#p5012f268b0)" d="M 103.77 108.025043 
L 193.05 108.025043 
L 193.05 100.154236 
L 103.77 100.154236 
z
" style="fill:#343d46;"/>
   </g>
   <g id="patch_30">
    <path clip-path="url(#p5012f268b0)" d="M 282.33 273.312 
L 371.61 273.312 
L 371.61 273.312 
L 282.33 273.312 
z
" style="fill:#343d46;"/>
   </g>
   <g id="patch_31">
    <path clip-path="url(#p5012f268b0)" d="M 103.77 100.154236 
L 193.05 100.154236 
L 193.05 95.431752 
L 103.77 95.431752 
z
" style="fill:#4f5b66;"/>
   </g>
   <g id="patch_32">
    <path clip-path="url(#p5012f268b0)" d="M 282.33 58.862769 
L 371.61 58.862769 
L 371.61 56.077714 
L 282.33 56.077714 
z
" style="fill:#4f5b66;"/>
   </g>
   <g id="patch_33">
    <path clip-path="url(#p5012f268b0)" d="M 103.77 95.431752 
L 193.05 95.431752 
L 193.05 92.283429 
L 103.77 92.283429 
z
" style="fill:#65737e;"/>
   </g>
   <g id="patch_34">
    <path clip-path="url(#p5012f268b0)" d="M 282.33 56.077714 
L 371.61 56.077714 
L 371.61 53.292659 
L 282.33 53.292659 
z
" style="fill:#65737e;"/>
   </g>
   <g id="patch_35">
    <path clip-path="url(#p5012f268b0)" d="M 103.77 92.283429 
L 193.05 92.283429 
L 193.05 85.986783 
L 103.77 85.986783 
z
" style="fill:#a7adba;"/>
   </g>
   <g id="patch_36">
    <path clip-path="url(#p5012f268b0)" d="M 282.33 273.312 
L 371.61 273.312 
L 371.61 273.312 
L 282.33 273.312 
z
" style="fill:#a7adba;"/>
   </g>
   <g id="patch_37">
    <path clip-path="url(#p5012f268b0)" d="M 103.77 85.986783 
L 193.05 85.986783 
L 193.05 81.264298 
L 103.77 81.264298 
z
" style="fill:#c0c5ce;"/>
   </g>
   <g id="patch_38">
    <path clip-path="url(#p5012f268b0)" d="M 282.33 53.292659 
L 371.61 53.292659 
L 371.61 51.900132 
L 282.33 51.900132 
z
" style="fill:#c0c5ce;"/>
   </g>
   <g id="patch_39">
    <path clip-path="url(#p5012f268b0)" d="M 103.77 273.312 
L 193.05 273.312 
L 193.05 273.312 
L 103.77 273.312 
z
" style="fill:#343d46;"/>
   </g>
   <g id="patch_40">
    <path clip-path="url(#p5012f268b0)" d="M 282.33 51.900132 
L 371.61 51.900132 
L 371.61 47.722549 
L 282.33 47.722549 
z
" style="fill:#343d46;"/>
   </g>
   <g id="patch_41">
    <path clip-path="url(#p5012f268b0)" d="M 103.77 81.264298 
L 193.05 81.264298 
L 193.05 76.541814 
L 103.77 76.541814 
z
" style="fill:#4f5b66;"/>
   </g>
   <g id="patch_42">
    <path clip-path="url(#p5012f268b0)" d="M 282.33 273.312 
L 371.61 273.312 
L 371.61 273.312 
L 282.33 273.312 
z
" style="fill:#4f5b66;"/>
   </g>
   <g id="patch_43">
    <path clip-path="url(#p5012f268b0)" d="M 103.77 76.541814 
L 193.05 76.541814 
L 193.05 71.819329 
L 103.77 71.819329 
z
" style="fill:#65737e;"/>
   </g>
   <g id="patch_44">
    <path clip-path="url(#p5012f268b0)" d="M 282.33 273.312 
L 371.61 273.312 
L 371.61 273.312 
L 282.33 273.312 
z
" style="fill:#65737e;"/>
   </g>
   <g id="patch_45">
    <path clip-path="url(#p5012f268b0)" d="M 103.77 273.312 
L 193.05 273.312 
L 193.05 273.312 
L 103.77 273.312 
z
" style="fill:#a7adba;"/>
   </g>
   <g id="patch_46">
    <path clip-path="url(#p5012f268b0)" d="M 282.33 47.722549 
L 371.61 47.722549 
L 371.61 43.544967 
L 282.33 43.544967 
z
" style="fill:#a7adba;"/>
   </g>
   <g id="patch_47">
    <path clip-path="url(#p5012f268b0)" d="M 103.77 273.312 
L 193.05 273.312 
L 193.05 273.312 
L 103.77 273.312 
z
" style="fill:#c0c5ce;"/>
   </g>
   <g id="patch_48">
    <path clip-path="url(#p5012f268b0)" d="M 282.33 43.544967 
L 371.61 43.544967 
L 371.61 39.367385 
L 282.33 39.367385 
z
" style="fill:#c0c5ce;"/>
   </g>
   <g id="patch_49">
    <path clip-path="url(#p5012f268b0)" d="M 103.77 71.819329 
L 193.05 71.819329 
L 193.05 70.245168 
L 103.77 70.245168 
z
" style="fill:#343d46;"/>
   </g>
   <g id="patch_50">
    <path clip-path="url(#p5012f268b0)" d="M 282.33 39.367385 
L 371.61 39.367385 
L 371.61 37.974857 
L 282.33 37.974857 
z
" style="fill:#343d46;"/>
   </g>
   <g id="patch_51">
    <path clip-path="url(#p5012f268b0)" d="M 103.77 70.245168 
L 193.05 70.245168 
L 193.05 67.096845 
L 103.77 67.096845 
z
" style="fill:#4f5b66;"/>
   </g>
   <g id="patch_52">
    <path clip-path="url(#p5012f268b0)" d="M 282.33 273.312 
L 371.61 273.312 
L 371.61 273.312 
L 282.33 273.312 
z
" style="fill:#4f5b66;"/>
   </g>
   <g id="patch_53">
    <path clip-path="url(#p5012f268b0)" d="M 103.77 67.096845 
L 193.05 67.096845 
L 193.05 65.522683 
L 103.77 65.522683 
z
" style="fill:#65737e;"/>
   </g>
   <g id="patch_54">
    <path clip-path="url(#p5012f268b0)" d="M 282.33 37.974857 
L 371.61 37.974857 
L 371.61 36.58233 
L 282.33 36.58233 
z
" style="fill:#65737e;"/>
   </g>
   <g id="patch_55">
    <path clip-path="url(#p5012f268b0)" d="M 103.77 65.522683 
L 193.05 65.522683 
L 193.05 62.37436 
L 103.77 62.37436 
z
" style="fill:#a7adba;"/>
   </g>
   <g id="patch_56">
    <path clip-path="url(#p5012f268b0)" d="M 282.33 273.312 
L 371.61 273.312 
L 371.61 273.312 
L 282.33 273.312 
z
" style="fill:#a7adba;"/>
   </g>
   <g id="patch_57">
    <path clip-path="url(#p5012f268b0)" d="M 103.77 62.37436 
L 193.05 62.37436 
L 193.05 59.226037 
L 103.77 59.226037 
z
" style="fill:#c0c5ce;"/>
   </g>
   <g id="patch_58">
    <path clip-path="url(#p5012f268b0)" d="M 282.33 273.312 
L 371.61 273.312 
L 371.61 273.312 
L 282.33 273.312 
z
" style="fill:#c0c5ce;"/>
   </g>
   <g id="patch_59">
    <path clip-path="url(#p5012f268b0)" d="M 103.77 59.226037 
L 193.05 59.226037 
L 193.05 56.077714 
L 103.77 56.077714 
z
" style="fill:#343d46;"/>
   </g>
   <g id="patch_60">
    <path clip-path="url(#p5012f268b0)" d="M 282.33 273.312 
L 371.61 273.312 
L 371.61 273.312 
L 282.33 273.312 
z
" style="fill:#343d46;"/>
   </g>
   <g id="patch_61">
    <path clip-path="url(#p5012f268b0)" d="M 103.77 56.077714 
L 193.05 56.077714 
L 193.05 52.929391 
L 103.77 52.929391 
z
" style="fill:#4f5b66;"/>
   </g>
   <g id="patch_62">
    <path clip-path="url(#p5012f268b0)" d="M 282.33 273.312 
L 371.61 273.312 
L 371.61 273.312 
L 282.33 273.312 
z
" style="fill:#4f5b66;"/>
   </g>
   <g id="patch_63">
    <path clip-path="url(#p5012f268b0)" d="M 103.77 52.929391 
L 193.05 52.929391 
L 193.05 51.35523 
L 103.77 51.35523 
z
" style="fill:#65737e;"/>
   </g>
   <g id="patch_64">
    <path clip-path="url(#p5012f268b0)" d="M 282.33 273.312 
L 371.61 273.312 
L 371.61 273.312 
L 282.33 273.312 
z
" style="fill:#65737e;"/>
   </g>
   <g id="patch_65">
    <path clip-path="url(#p5012f268b0)" d="M 103.77 273.312 
L 193.05 273.312 
L 193.05 273.312 
L 103.77 273.312 
z
" style="fill:#a7adba;"/>
   </g>
   <g id="patch_66">
    <path clip-path="url(#p5012f268b0)" d="M 282.33 36.58233 
L 371.61 36.58233 
L 371.61 35.189802 
L 282.33 35.189802 
z
" style="fill:#a7adba;"/>
   </g>
   <g id="patch_67">
    <path clip-path="url(#p5012f268b0)" d="M 103.77 51.35523 
L 193.05 51.35523 
L 193.05 49.781068 
L 103.77 49.781068 
z
" style="fill:#c0c5ce;"/>
   </g>
   <g id="patch_68">
    <path clip-path="url(#p5012f268b0)" d="M 282.33 273.312 
L 371.61 273.312 
L 371.61 273.312 
L 282.33 273.312 
z
" style="fill:#c0c5ce;"/>
   </g>
   <g id="patch_69">
    <path clip-path="url(#p5012f268b0)" d="M 103.77 49.781068 
L 193.05 49.781068 
L 193.05 48.206907 
L 103.77 48.206907 
z
" style="fill:#343d46;"/>
   </g>
   <g id="patch_70">
    <path clip-path="url(#p5012f268b0)" d="M 282.33 273.312 
L 371.61 273.312 
L 371.61 273.312 
L 282.33 273.312 
z
" style="fill:#343d46;"/>
   </g>
   <g id="patch_71">
    <path clip-path="url(#p5012f268b0)" d="M 103.77 48.206907 
L 193.05 48.206907 
L 193.05 46.632745 
L 103.77 46.632745 
z
" style="fill:#4f5b66;"/>
   </g>
   <g id="patch_72">
    <path clip-path="url(#p5012f268b0)" d="M 282.33 273.312 
L 371.61 273.312 
L 371.61 273.312 
L 282.33 273.312 
z
" style="fill:#4f5b66;"/>
   </g>
   <g id="patch_73">
    <path clip-path="url(#p5012f268b0)" d="M 103.77 46.632745 
L 193.05 46.632745 
L 193.05 45.058584 
L 103.77 45.058584 
z
" style="fill:#65737e;"/>
   </g>
   <g id="patch_74">
    <path clip-path="url(#p5012f268b0)" d="M 282.33 273.312 
L 371.61 273.312 
L 371.61 273.312 
L 282.33 273.312 
z
" style="fill:#65737e;"/>
   </g>
   <g id="patch_75">
    <path clip-path="url(#p5012f268b0)" d="M 103.77 45.058584 
L 193.05 45.058584 
L 193.05 43.484422 
L 103.77 43.484422 
z
" style="fill:#a7adba;"/>
   </g>
   <g id="patch_76">
    <path clip-path="url(#p5012f268b0)" d="M 282.33 273.312 
L 371.61 273.312 
L 371.61 273.312 
L 282.33 273.312 
z
" style="fill:#a7adba;"/>
   </g>
   <g id="patch_77">
    <path clip-path="url(#p5012f268b0)" d="M 103.77 43.484422 
L 193.05 43.484422 
L 193.05 41.910261 
L 103.77 41.910261 
z
" style="fill:#c0c5ce;"/>
   </g>
   <g id="patch_78">
    <path clip-path="url(#p5012f268b0)" d="M 282.33 273.312 
L 371.61 273.312 
L 371.61 273.312 
L 282.33 273.312 
z
" style="fill:#c0c5ce;"/>
   </g>
   <g id="patch_79">
    <path clip-path="url(#p5012f268b0)" d="M 103.77 41.910261 
L 193.05 41.910261 
L 193.05 40.336099 
L 103.77 40.336099 
z
" style="fill:#343d46;"/>
   </g>
   <g id="patch_80">
    <path clip-path="url(#p5012f268b0)" d="M 282.33 273.312 
L 371.61 273.312 
L 371.61 273.312 
L 282.33 273.312 
z
" style="fill:#343d46;"/>
   </g>
   <g id="patch_81">
    <path clip-path="url(#p5012f268b0)" d="M 103.77 40.336099 
L 193.05 40.336099 
L 193.05 38.761938 
L 103.77 38.761938 
z
" style="fill:#4f5b66;"/>
   </g>
   <g id="patch_82">
    <path clip-path="url(#p5012f268b0)" d="M 282.33 273.312 
L 371.61 273.312 
L 371.61 273.312 
L 282.33 273.312 
z
" style="fill:#4f5b66;"/>
   </g>
   <g id="patch_83">
    <path clip-path="url(#p5012f268b0)" d="M 103.77 273.312 
L 193.05 273.312 
L 193.05 273.312 
L 103.77 273.312 
z
" style="fill:#65737e;"/>
   </g>
   <g id="patch_84">
    <path clip-path="url(#p5012f268b0)" d="M 282.33 35.189802 
L 371.61 35.189802 
L 371.61 33.797275 
L 282.33 33.797275 
z
" style="fill:#65737e;"/>
   </g>
   <g id="patch_85">
    <path clip-path="url(#p5012f268b0)" d="M 103.77 38.761938 
L 193.05 38.761938 
L 193.05 37.187776 
L 103.77 37.187776 
z
" style="fill:#a7adba;"/>
   </g>
   <g id="patch_86">
    <path clip-path="url(#p5012f268b0)" d="M 282.33 273.312 
L 371.61 273.312 
L 371.61 273.312 
L 282.33 273.312 
z
" style="fill:#a7adba;"/>
   </g>
   <g id="patch_87">
    <path clip-path="url(#p5012f268b0)" d="M 103.77 37.187776 
L 193.05 37.187776 
L 193.05 35.613615 
L 103.77 35.613615 
z
" style="fill:#c0c5ce;"/>
   </g>
   <g id="patch_88">
    <path clip-path="url(#p5012f268b0)" d="M 282.33 273.312 
L 371.61 273.312 
L 371.61 273.312 
L 282.33 273.312 
z
" style="fill:#c0c5ce;"/>
   </g>
   <g id="patch_89">
    <path clip-path="url(#p5012f268b0)" d="M 103.77 35.613615 
L 193.05 35.613615 
L 193.05 34.039453 
L 103.77 34.039453 
z
" style="fill:#343d46;"/>
   </g>
   <g id="patch_90">
    <path clip-path="url(#p5012f268b0)" d="M 282.33 273.312 
L 371.61 273.312 
L 371.61 273.312 
L 282.33 273.312 
z
" style="fill:#343d46;"/>
   </g>
   <g id="patch_91">
    <path clip-path="url(#p5012f268b0)" d="M 103.77 273.312 
L 193.05 273.312 
L 193.05 273.312 
L 103.77 273.312 
z
" style="fill:#4f5b66;"/>
   </g>
   <g id="patch_92">
    <path clip-path="url(#p5012f268b0)" d="M 282.33 33.797275 
L 371.61 33.797275 
L 371.61 32.404747 
L 282.33 32.404747 
z
" style="fill:#4f5b66;"/>
   </g>
   <g id="patch_93">
    <path clip-path="url(#p5012f268b0)" d="M 103.77 273.312 
L 193.05 273.312 
L 193.05 273.312 
L 103.77 273.312 
z
" style="fill:#65737e;"/>
   </g>
   <g id="patch_94">
    <path clip-path="url(#p5012f268b0)" d="M 282.33 32.404747 
L 371.61 32.404747 
L 371.61 31.01222 
L 282.33 31.01222 
z
" style="fill:#65737e;"/>
   </g>
   <g id="patch_95">
    <path clip-path="url(#p5012f268b0)" d="M 103.77 34.039453 
L 193.05 34.039453 
L 193.05 32.465292 
L 103.77 32.465292 
z
" style="fill:#a7adba;"/>
   </g>
   <g id="patch_96">
    <path clip-path="url(#p5012f268b0)" d="M 282.33 273.312 
L 371.61 273.312 
L 371.61 273.312 
L 282.33 273.312 
z
" style="fill:#a7adba;"/>
   </g>
   <g id="patch_97">
    <path clip-path="url(#p5012f268b0)" d="M 103.77 273.312 
L 193.05 273.312 
L 193.05 273.312 
L 103.77 273.312 
z
" style="fill:#c0c5ce;"/>
   </g>
   <g id="patch_98">
    <path clip-path="url(#p5012f268b0)" d="M 282.33 31.01222 
L 371.61 31.01222 
L 371.61 29.619692 
L 282.33 29.619692 
z
" style="fill:#c0c5ce;"/>
   </g>
   <g id="patch_99">
    <path clip-path="url(#p5012f268b0)" d="M 103.77 32.465292 
L 193.05 32.465292 
L 193.05 19.872 
L 103.77 19.872 
z
" style="fill:#343d46;"/>
   </g>
   <g id="patch_100">
    <path clip-path="url(#p5012f268b0)" d="M 282.33 29.619692 
L 371.61 29.619692 
L 371.61 28.227165 
L 282.33 28.227165 
z
" style="fill:#343d46;"/>
   </g>
   <g id="patch_101">
    <path clip-path="url(#p5012f268b0)" d="M 103.77 273.312 
L 193.05 273.312 
L 193.05 273.312 
L 103.77 273.312 
z
" style="fill:#4f5b66;"/>
   </g>
   <g id="patch_102">
    <path clip-path="url(#p5012f268b0)" d="M 282.33 28.227165 
L 371.61 28.227165 
L 371.61 19.872 
L 282.33 19.872 
z
" style="fill:#4f5b66;"/>
   </g>
   <g id="matplotlib.axis_1">
    <g id="xtick_1">
     <g id="line2d_1">
      <defs>
       <path d="M 0 0 
L 0 3.5 
" id="m97b03f2ce6" style="stroke:#000000;stroke-width:0.8;"/>
      </defs>
      <g>
       <use style="stroke:#000000;stroke-width:0.8;" x="148.41" xlink:href="#m97b03f2ce6" y="273.312"/>
      </g>
     </g>
     <g id="text_1">
      <!-- cp -->
      <defs>
       <path d="M 48.78125 52.59375 
L 48.78125 44.1875 
Q 44.96875 46.296875 41.140625 47.34375 
Q 37.3125 48.390625 33.40625 48.390625 
Q 24.65625 48.390625 19.8125 42.84375 
Q 14.984375 37.3125 14.984375 27.296875 
Q 14.984375 17.28125 19.8125 11.734375 
Q 24.65625 6.203125 33.40625 6.203125 
Q 37.3125 6.203125 41.140625 7.25 
Q 44.96875 8.296875 48.78125 10.40625 
L 48.78125 2.09375 
Q 45.015625 0.34375 40.984375 -0.53125 
Q 36.96875 -1.421875 32.421875 -1.421875 
Q 20.0625 -1.421875 12.78125 6.34375 
Q 5.515625 14.109375 5.515625 27.296875 
Q 5.515625 40.671875 12.859375 48.328125 
Q 20.21875 56 33.015625 56 
Q 37.15625 56 41.109375 55.140625 
Q 45.0625 54.296875 48.78125 52.59375 
z
" id="DejaVuSans-99"/>
       <path d="M 18.109375 8.203125 
L 18.109375 -20.796875 
L 9.078125 -20.796875 
L 9.078125 54.6875 
L 18.109375 54.6875 
L 18.109375 46.390625 
Q 20.953125 51.265625 25.265625 53.625 
Q 29.59375 56 35.59375 56 
Q 45.5625 56 51.78125 48.09375 
Q 58.015625 40.1875 58.015625 27.296875 
Q 58.015625 14.40625 51.78125 6.484375 
Q 45.5625 -1.421875 35.59375 -1.421875 
Q 29.59375 -1.421875 25.265625 0.953125 
Q 20.953125 3.328125 18.109375 8.203125 
z
M 48.6875 27.296875 
Q 48.6875 37.203125 44.609375 42.84375 
Q 40.53125 48.484375 33.40625 48.484375 
Q 26.265625 48.484375 22.1875 42.84375 
Q 18.109375 37.203125 18.109375 27.296875 
Q 18.109375 17.390625 22.1875 11.75 
Q 26.265625 6.109375 33.40625 6.109375 
Q 40.53125 6.109375 44.609375 11.75 
Q 48.6875 17.390625 48.6875 27.296875 
z
" id="DejaVuSans-112"/>
      </defs>
      <g transform="translate(152.825 299.267)rotate(-90)scale(0.16 -0.16)">
       <use xlink:href="#DejaVuSans-99"/>
       <use x="54.980469" xlink:href="#DejaVuSans-112"/>
      </g>
     </g>
    </g>
    <g id="xtick_2">
     <g id="line2d_2">
      <g>
       <use style="stroke:#000000;stroke-width:0.8;" x="326.97" xlink:href="#m97b03f2ce6" y="273.312"/>
      </g>
     </g>
     <g id="text_2">
      <!-- sns -->
      <defs>
       <path d="M 44.28125 53.078125 
L 44.28125 44.578125 
Q 40.484375 46.53125 36.375 47.5 
Q 32.28125 48.484375 27.875 48.484375 
Q 21.1875 48.484375 17.84375 46.4375 
Q 14.5 44.390625 14.5 40.28125 
Q 14.5 37.15625 16.890625 35.375 
Q 19.28125 33.59375 26.515625 31.984375 
L 29.59375 31.296875 
Q 39.15625 29.25 43.1875 25.515625 
Q 47.21875 21.78125 47.21875 15.09375 
Q 47.21875 7.46875 41.1875 3.015625 
Q 35.15625 -1.421875 24.609375 -1.421875 
Q 20.21875 -1.421875 15.453125 -0.5625 
Q 10.6875 0.296875 5.421875 2 
L 5.421875 11.28125 
Q 10.40625 8.6875 15.234375 7.390625 
Q 20.0625 6.109375 24.8125 6.109375 
Q 31.15625 6.109375 34.5625 8.28125 
Q 37.984375 10.453125 37.984375 14.40625 
Q 37.984375 18.0625 35.515625 20.015625 
Q 33.0625 21.96875 24.703125 23.78125 
L 21.578125 24.515625 
Q 13.234375 26.265625 9.515625 29.90625 
Q 5.8125 33.546875 5.8125 39.890625 
Q 5.8125 47.609375 11.28125 51.796875 
Q 16.75 56 26.8125 56 
Q 31.78125 56 36.171875 55.265625 
Q 40.578125 54.546875 44.28125 53.078125 
z
" id="DejaVuSans-115"/>
       <path d="M 54.890625 33.015625 
L 54.890625 0 
L 45.90625 0 
L 45.90625 32.71875 
Q 45.90625 40.484375 42.875 44.328125 
Q 39.84375 48.1875 33.796875 48.1875 
Q 26.515625 48.1875 22.3125 43.546875 
Q 18.109375 38.921875 18.109375 30.90625 
L 18.109375 0 
L 9.078125 0 
L 9.078125 54.6875 
L 18.109375 54.6875 
L 18.109375 46.1875 
Q 21.34375 51.125 25.703125 53.5625 
Q 30.078125 56 35.796875 56 
Q 45.21875 56 50.046875 50.171875 
Q 54.890625 44.34375 54.890625 33.015625 
z
" id="DejaVuSans-110"/>
      </defs>
      <g transform="translate(331.385 307.122)rotate(-90)scale(0.16 -0.16)">
       <use xlink:href="#DejaVuSans-115"/>
       <use x="52.099609" xlink:href="#DejaVuSans-110"/>
       <use x="115.478516" xlink:href="#DejaVuSans-115"/>
      </g>
     </g>
    </g>
    <g id="text_3">
     <!-- Category -->
     <defs>
      <path d="M 64.40625 67.28125 
L 64.40625 56.890625 
Q 59.421875 61.53125 53.78125 63.8125 
Q 48.140625 66.109375 41.796875 66.109375 
Q 29.296875 66.109375 22.65625 58.46875 
Q 16.015625 50.828125 16.015625 36.375 
Q 16.015625 21.96875 22.65625 14.328125 
Q 29.296875 6.6875 41.796875 6.6875 
Q 48.140625 6.6875 53.78125 8.984375 
Q 59.421875 11.28125 64.40625 15.921875 
L 64.40625 5.609375 
Q 59.234375 2.09375 53.4375 0.328125 
Q 47.65625 -1.421875 41.21875 -1.421875 
Q 24.65625 -1.421875 15.125 8.703125 
Q 5.609375 18.84375 5.609375 36.375 
Q 5.609375 53.953125 15.125 64.078125 
Q 24.65625 74.21875 41.21875 74.21875 
Q 47.75 74.21875 53.53125 72.484375 
Q 59.328125 70.75 64.40625 67.28125 
z
" id="DejaVuSans-67"/>
      <path d="M 34.28125 27.484375 
Q 23.390625 27.484375 19.1875 25 
Q 14.984375 22.515625 14.984375 16.5 
Q 14.984375 11.71875 18.140625 8.90625 
Q 21.296875 6.109375 26.703125 6.109375 
Q 34.1875 6.109375 38.703125 11.40625 
Q 43.21875 16.703125 43.21875 25.484375 
L 43.21875 27.484375 
z
M 52.203125 31.203125 
L 52.203125 0 
L 43.21875 0 
L 43.21875 8.296875 
Q 40.140625 3.328125 35.546875 0.953125 
Q 30.953125 -1.421875 24.3125 -1.421875 
Q 15.921875 -1.421875 10.953125 3.296875 
Q 6 8.015625 6 15.921875 
Q 6 25.140625 12.171875 29.828125 
Q 18.359375 34.515625 30.609375 34.515625 
L 43.21875 34.515625 
L 43.21875 35.40625 
Q 43.21875 41.609375 39.140625 45 
Q 35.0625 48.390625 27.6875 48.390625 
Q 23 48.390625 18.546875 47.265625 
Q 14.109375 46.140625 10.015625 43.890625 
L 10.015625 52.203125 
Q 14.9375 54.109375 19.578125 55.046875 
Q 24.21875 56 28.609375 56 
Q 40.484375 56 46.34375 49.84375 
Q 52.203125 43.703125 52.203125 31.203125 
z
" id="DejaVuSans-97"/>
      <path d="M 18.3125 70.21875 
L 18.3125 54.6875 
L 36.8125 54.6875 
L 36.8125 47.703125 
L 18.3125 47.703125 
L 18.3125 18.015625 
Q 18.3125 11.328125 20.140625 9.421875 
Q 21.96875 7.515625 27.59375 7.515625 
L 36.8125 7.515625 
L 36.8125 0 
L 27.59375 0 
Q 17.1875 0 13.234375 3.875 
Q 9.28125 7.765625 9.28125 18.015625 
L 9.28125 47.703125 
L 2.6875 47.703125 
L 2.6875 54.6875 
L 9.28125 54.6875 
L 9.28125 70.21875 
z
" id="DejaVuSans-116"/>
      <path d="M 56.203125 29.59375 
L 56.203125 25.203125 
L 14.890625 25.203125 
Q 15.484375 15.921875 20.484375 11.0625 
Q 25.484375 6.203125 34.421875 6.203125 
Q 39.59375 6.203125 44.453125 7.46875 
Q 49.3125 8.734375 54.109375 11.28125 
L 54.109375 2.78125 
Q 49.265625 0.734375 44.1875 -0.34375 
Q 39.109375 -1.421875 33.890625 -1.421875 
Q 20.796875 -1.421875 13.15625 6.1875 
Q 5.515625 13.8125 5.515625 26.8125 
Q 5.515625 40.234375 12.765625 48.109375 
Q 20.015625 56 32.328125 56 
Q 43.359375 56 49.78125 48.890625 
Q 56.203125 41.796875 56.203125 29.59375 
z
M 47.21875 32.234375 
Q 47.125 39.59375 43.09375 43.984375 
Q 39.0625 48.390625 32.421875 48.390625 
Q 24.90625 48.390625 20.390625 44.140625 
Q 15.875 39.890625 15.1875 32.171875 
z
" id="DejaVuSans-101"/>
      <path d="M 45.40625 27.984375 
Q 45.40625 37.75 41.375 43.109375 
Q 37.359375 48.484375 30.078125 48.484375 
Q 22.859375 48.484375 18.828125 43.109375 
Q 14.796875 37.75 14.796875 27.984375 
Q 14.796875 18.265625 18.828125 12.890625 
Q 22.859375 7.515625 30.078125 7.515625 
Q 37.359375 7.515625 41.375 12.890625 
Q 45.40625 18.265625 45.40625 27.984375 
z
M 54.390625 6.78125 
Q 54.390625 -7.171875 48.1875 -13.984375 
Q 42 -20.796875 29.203125 -20.796875 
Q 24.46875 -20.796875 20.265625 -20.09375 
Q 16.0625 -19.390625 12.109375 -17.921875 
L 12.109375 -9.1875 
Q 16.0625 -11.328125 19.921875 -12.34375 
Q 23.78125 -13.375 27.78125 -13.375 
Q 36.625 -13.375 41.015625 -8.765625 
Q 45.40625 -4.15625 45.40625 5.171875 
L 45.40625 9.625 
Q 42.625 4.78125 38.28125 2.390625 
Q 33.9375 0 27.875 0 
Q 17.828125 0 11.671875 7.65625 
Q 5.515625 15.328125 5.515625 27.984375 
Q 5.515625 40.671875 11.671875 48.328125 
Q 17.828125 56 27.875 56 
Q 33.9375 56 38.28125 53.609375 
Q 42.625 51.21875 45.40625 46.390625 
L 45.40625 54.6875 
L 54.390625 54.6875 
z
" id="DejaVuSans-103"/>
      <path d="M 30.609375 48.390625 
Q 23.390625 48.390625 19.1875 42.75 
Q 14.984375 37.109375 14.984375 27.296875 
Q 14.984375 17.484375 19.15625 11.84375 
Q 23.34375 6.203125 30.609375 6.203125 
Q 37.796875 6.203125 41.984375 11.859375 
Q 46.1875 17.53125 46.1875 27.296875 
Q 46.1875 37.015625 41.984375 42.703125 
Q 37.796875 48.390625 30.609375 48.390625 
z
M 30.609375 56 
Q 42.328125 56 49.015625 48.375 
Q 55.71875 40.765625 55.71875 27.296875 
Q 55.71875 13.875 49.015625 6.21875 
Q 42.328125 -1.421875 30.609375 -1.421875 
Q 18.84375 -1.421875 12.171875 6.21875 
Q 5.515625 13.875 5.515625 27.296875 
Q 5.515625 40.765625 12.171875 48.375 
Q 18.84375 56 30.609375 56 
z
" id="DejaVuSans-111"/>
      <path d="M 41.109375 46.296875 
Q 39.59375 47.171875 37.8125 47.578125 
Q 36.03125 48 33.890625 48 
Q 26.265625 48 22.1875 43.046875 
Q 18.109375 38.09375 18.109375 28.8125 
L 18.109375 0 
L 9.078125 0 
L 9.078125 54.6875 
L 18.109375 54.6875 
L 18.109375 46.1875 
Q 20.953125 51.171875 25.484375 53.578125 
Q 30.03125 56 36.53125 56 
Q 37.453125 56 38.578125 55.875 
Q 39.703125 55.765625 41.0625 55.515625 
z
" id="DejaVuSans-114"/>
      <path d="M 32.171875 -5.078125 
Q 28.375 -14.84375 24.75 -17.8125 
Q 21.140625 -20.796875 15.09375 -20.796875 
L 7.90625 -20.796875 
L 7.90625 -13.28125 
L 13.1875 -13.28125 
Q 16.890625 -13.28125 18.9375 -11.515625 
Q 21 -9.765625 23.484375 -3.21875 
L 25.09375 0.875 
L 2.984375 54.6875 
L 12.5 54.6875 
L 29.59375 11.921875 
L 46.6875 54.6875 
L 56.203125 54.6875 
z
" id="DejaVuSans-121"/>
     </defs>
     <g transform="translate(201.145 323.2795)scale(0.16 -0.16)">
      <use xlink:href="#DejaVuSans-67"/>
      <use x="69.824219" xlink:href="#DejaVuSans-97"/>
      <use x="131.103516" xlink:href="#DejaVuSans-116"/>
      <use x="170.3125" xlink:href="#DejaVuSans-101"/>
      <use x="231.835938" xlink:href="#DejaVuSans-103"/>
      <use x="295.3125" xlink:href="#DejaVuSans-111"/>
      <use x="356.494141" xlink:href="#DejaVuSans-114"/>
      <use x="397.607422" xlink:href="#DejaVuSans-121"/>
     </g>
    </g>
   </g>
   <g id="matplotlib.axis_2">
    <g id="ytick_1">
     <g id="line2d_3">
      <defs>
       <path d="M 0 0 
L -3.5 0 
" id="m883f066ba8" style="stroke:#000000;stroke-width:0.8;"/>
      </defs>
      <g>
       <use style="stroke:#000000;stroke-width:0.8;" x="59.13" xlink:href="#m883f066ba8" y="273.312"/>
      </g>
     </g>
     <g id="text_4">
      <!-- 0.0 -->
      <defs>
       <path d="M 31.78125 66.40625 
Q 24.171875 66.40625 20.328125 58.90625 
Q 16.5 51.421875 16.5 36.375 
Q 16.5 21.390625 20.328125 13.890625 
Q 24.171875 6.390625 31.78125 6.390625 
Q 39.453125 6.390625 43.28125 13.890625 
Q 47.125 21.390625 47.125 36.375 
Q 47.125 51.421875 43.28125 58.90625 
Q 39.453125 66.40625 31.78125 66.40625 
z
M 31.78125 74.21875 
Q 44.046875 74.21875 50.515625 64.515625 
Q 56.984375 54.828125 56.984375 36.375 
Q 56.984375 17.96875 50.515625 8.265625 
Q 44.046875 -1.421875 31.78125 -1.421875 
Q 19.53125 -1.421875 13.0625 8.265625 
Q 6.59375 17.96875 6.59375 36.375 
Q 6.59375 54.828125 13.0625 64.515625 
Q 19.53125 74.21875 31.78125 74.21875 
z
" id="DejaVuSans-48"/>
       <path d="M 10.6875 12.40625 
L 21 12.40625 
L 21 0 
L 10.6875 0 
z
" id="DejaVuSans-46"/>
      </defs>
      <g transform="translate(26.685 279.39075)scale(0.16 -0.16)">
       <use xlink:href="#DejaVuSans-48"/>
       <use x="63.623047" xlink:href="#DejaVuSans-46"/>
       <use x="95.410156" xlink:href="#DejaVuSans-48"/>
      </g>
     </g>
    </g>
    <g id="ytick_2">
     <g id="line2d_4">
      <g>
       <use style="stroke:#000000;stroke-width:0.8;" x="59.13" xlink:href="#m883f066ba8" y="222.624"/>
      </g>
     </g>
     <g id="text_5">
      <!-- 0.2 -->
      <defs>
       <path d="M 19.1875 8.296875 
L 53.609375 8.296875 
L 53.609375 0 
L 7.328125 0 
L 7.328125 8.296875 
Q 12.9375 14.109375 22.625 23.890625 
Q 32.328125 33.6875 34.8125 36.53125 
Q 39.546875 41.84375 41.421875 45.53125 
Q 43.3125 49.21875 43.3125 52.78125 
Q 43.3125 58.59375 39.234375 62.25 
Q 35.15625 65.921875 28.609375 65.921875 
Q 23.96875 65.921875 18.8125 64.3125 
Q 13.671875 62.703125 7.8125 59.421875 
L 7.8125 69.390625 
Q 13.765625 71.78125 18.9375 73 
Q 24.125 74.21875 28.421875 74.21875 
Q 39.75 74.21875 46.484375 68.546875 
Q 53.21875 62.890625 53.21875 53.421875 
Q 53.21875 48.921875 51.53125 44.890625 
Q 49.859375 40.875 45.40625 35.40625 
Q 44.1875 33.984375 37.640625 27.21875 
Q 31.109375 20.453125 19.1875 8.296875 
z
" id="DejaVuSans-50"/>
      </defs>
      <g transform="translate(26.685 228.70275)scale(0.16 -0.16)">
       <use xlink:href="#DejaVuSans-48"/>
       <use x="63.623047" xlink:href="#DejaVuSans-46"/>
       <use x="95.410156" xlink:href="#DejaVuSans-50"/>
      </g>
     </g>
    </g>
    <g id="ytick_3">
     <g id="line2d_5">
      <g>
       <use style="stroke:#000000;stroke-width:0.8;" x="59.13" xlink:href="#m883f066ba8" y="171.936"/>
      </g>
     </g>
     <g id="text_6">
      <!-- 0.4 -->
      <defs>
       <path d="M 37.796875 64.3125 
L 12.890625 25.390625 
L 37.796875 25.390625 
z
M 35.203125 72.90625 
L 47.609375 72.90625 
L 47.609375 25.390625 
L 58.015625 25.390625 
L 58.015625 17.1875 
L 47.609375 17.1875 
L 47.609375 0 
L 37.796875 0 
L 37.796875 17.1875 
L 4.890625 17.1875 
L 4.890625 26.703125 
z
" id="DejaVuSans-52"/>
      </defs>
      <g transform="translate(26.685 178.01475)scale(0.16 -0.16)">
       <use xlink:href="#DejaVuSans-48"/>
       <use x="63.623047" xlink:href="#DejaVuSans-46"/>
       <use x="95.410156" xlink:href="#DejaVuSans-52"/>
      </g>
     </g>
    </g>
    <g id="ytick_4">
     <g id="line2d_6">
      <g>
       <use style="stroke:#000000;stroke-width:0.8;" x="59.13" xlink:href="#m883f066ba8" y="121.248"/>
      </g>
     </g>
     <g id="text_7">
      <!-- 0.6 -->
      <defs>
       <path d="M 33.015625 40.375 
Q 26.375 40.375 22.484375 35.828125 
Q 18.609375 31.296875 18.609375 23.390625 
Q 18.609375 15.53125 22.484375 10.953125 
Q 26.375 6.390625 33.015625 6.390625 
Q 39.65625 6.390625 43.53125 10.953125 
Q 47.40625 15.53125 47.40625 23.390625 
Q 47.40625 31.296875 43.53125 35.828125 
Q 39.65625 40.375 33.015625 40.375 
z
M 52.59375 71.296875 
L 52.59375 62.3125 
Q 48.875 64.0625 45.09375 64.984375 
Q 41.3125 65.921875 37.59375 65.921875 
Q 27.828125 65.921875 22.671875 59.328125 
Q 17.53125 52.734375 16.796875 39.40625 
Q 19.671875 43.65625 24.015625 45.921875 
Q 28.375 48.1875 33.59375 48.1875 
Q 44.578125 48.1875 50.953125 41.515625 
Q 57.328125 34.859375 57.328125 23.390625 
Q 57.328125 12.15625 50.6875 5.359375 
Q 44.046875 -1.421875 33.015625 -1.421875 
Q 20.359375 -1.421875 13.671875 8.265625 
Q 6.984375 17.96875 6.984375 36.375 
Q 6.984375 53.65625 15.1875 63.9375 
Q 23.390625 74.21875 37.203125 74.21875 
Q 40.921875 74.21875 44.703125 73.484375 
Q 48.484375 72.75 52.59375 71.296875 
z
" id="DejaVuSans-54"/>
      </defs>
      <g transform="translate(26.685 127.32675)scale(0.16 -0.16)">
       <use xlink:href="#DejaVuSans-48"/>
       <use x="63.623047" xlink:href="#DejaVuSans-46"/>
       <use x="95.410156" xlink:href="#DejaVuSans-54"/>
      </g>
     </g>
    </g>
    <g id="ytick_5">
     <g id="line2d_7">
      <g>
       <use style="stroke:#000000;stroke-width:0.8;" x="59.13" xlink:href="#m883f066ba8" y="70.56"/>
      </g>
     </g>
     <g id="text_8">
      <!-- 0.8 -->
      <defs>
       <path d="M 31.78125 34.625 
Q 24.75 34.625 20.71875 30.859375 
Q 16.703125 27.09375 16.703125 20.515625 
Q 16.703125 13.921875 20.71875 10.15625 
Q 24.75 6.390625 31.78125 6.390625 
Q 38.8125 6.390625 42.859375 10.171875 
Q 46.921875 13.96875 46.921875 20.515625 
Q 46.921875 27.09375 42.890625 30.859375 
Q 38.875 34.625 31.78125 34.625 
z
M 21.921875 38.8125 
Q 15.578125 40.375 12.03125 44.71875 
Q 8.5 49.078125 8.5 55.328125 
Q 8.5 64.0625 14.71875 69.140625 
Q 20.953125 74.21875 31.78125 74.21875 
Q 42.671875 74.21875 48.875 69.140625 
Q 55.078125 64.0625 55.078125 55.328125 
Q 55.078125 49.078125 51.53125 44.71875 
Q 48 40.375 41.703125 38.8125 
Q 48.828125 37.15625 52.796875 32.3125 
Q 56.78125 27.484375 56.78125 20.515625 
Q 56.78125 9.90625 50.3125 4.234375 
Q 43.84375 -1.421875 31.78125 -1.421875 
Q 19.734375 -1.421875 13.25 4.234375 
Q 6.78125 9.90625 6.78125 20.515625 
Q 6.78125 27.484375 10.78125 32.3125 
Q 14.796875 37.15625 21.921875 38.8125 
z
M 18.3125 54.390625 
Q 18.3125 48.734375 21.84375 45.5625 
Q 25.390625 42.390625 31.78125 42.390625 
Q 38.140625 42.390625 41.71875 45.5625 
Q 45.3125 48.734375 45.3125 54.390625 
Q 45.3125 60.0625 41.71875 63.234375 
Q 38.140625 66.40625 31.78125 66.40625 
Q 25.390625 66.40625 21.84375 63.234375 
Q 18.3125 60.0625 18.3125 54.390625 
z
" id="DejaVuSans-56"/>
      </defs>
      <g transform="translate(26.685 76.63875)scale(0.16 -0.16)">
       <use xlink:href="#DejaVuSans-48"/>
       <use x="63.623047" xlink:href="#DejaVuSans-46"/>
       <use x="95.410156" xlink:href="#DejaVuSans-56"/>
      </g>
     </g>
    </g>
    <g id="ytick_6">
     <g id="line2d_8">
      <g>
       <use style="stroke:#000000;stroke-width:0.8;" x="59.13" xlink:href="#m883f066ba8" y="19.872"/>
      </g>
     </g>
     <g id="text_9">
      <!-- 1.0 -->
      <defs>
       <path d="M 12.40625 8.296875 
L 28.515625 8.296875 
L 28.515625 63.921875 
L 10.984375 60.40625 
L 10.984375 69.390625 
L 28.421875 72.90625 
L 38.28125 72.90625 
L 38.28125 8.296875 
L 54.390625 8.296875 
L 54.390625 0 
L 12.40625 0 
z
" id="DejaVuSans-49"/>
      </defs>
      <g transform="translate(26.685 25.95075)scale(0.16 -0.16)">
       <use xlink:href="#DejaVuSans-49"/>
       <use x="63.623047" xlink:href="#DejaVuSans-46"/>
       <use x="95.410156" xlink:href="#DejaVuSans-48"/>
      </g>
     </g>
    </g>
    <g id="text_10">
     <!-- Rate of CVE -->
     <defs>
      <path d="M 44.390625 34.1875 
Q 47.5625 33.109375 50.5625 29.59375 
Q 53.5625 26.078125 56.59375 19.921875 
L 66.609375 0 
L 56 0 
L 46.6875 18.703125 
Q 43.0625 26.03125 39.671875 28.421875 
Q 36.28125 30.8125 30.421875 30.8125 
L 19.671875 30.8125 
L 19.671875 0 
L 9.8125 0 
L 9.8125 72.90625 
L 32.078125 72.90625 
Q 44.578125 72.90625 50.734375 67.671875 
Q 56.890625 62.453125 56.890625 51.90625 
Q 56.890625 45.015625 53.6875 40.46875 
Q 50.484375 35.9375 44.390625 34.1875 
z
M 19.671875 64.796875 
L 19.671875 38.921875 
L 32.078125 38.921875 
Q 39.203125 38.921875 42.84375 42.21875 
Q 46.484375 45.515625 46.484375 51.90625 
Q 46.484375 58.296875 42.84375 61.546875 
Q 39.203125 64.796875 32.078125 64.796875 
z
" id="DejaVuSans-82"/>
      <path id="DejaVuSans-32"/>
      <path d="M 37.109375 75.984375 
L 37.109375 68.5 
L 28.515625 68.5 
Q 23.6875 68.5 21.796875 66.546875 
Q 19.921875 64.59375 19.921875 59.515625 
L 19.921875 54.6875 
L 34.71875 54.6875 
L 34.71875 47.703125 
L 19.921875 47.703125 
L 19.921875 0 
L 10.890625 0 
L 10.890625 47.703125 
L 2.296875 47.703125 
L 2.296875 54.6875 
L 10.890625 54.6875 
L 10.890625 58.5 
Q 10.890625 67.625 15.140625 71.796875 
Q 19.390625 75.984375 28.609375 75.984375 
z
" id="DejaVuSans-102"/>
      <path d="M 28.609375 0 
L 0.78125 72.90625 
L 11.078125 72.90625 
L 34.1875 11.53125 
L 57.328125 72.90625 
L 67.578125 72.90625 
L 39.796875 0 
z
" id="DejaVuSans-86"/>
      <path d="M 9.8125 72.90625 
L 55.90625 72.90625 
L 55.90625 64.59375 
L 19.671875 64.59375 
L 19.671875 43.015625 
L 54.390625 43.015625 
L 54.390625 34.71875 
L 19.671875 34.71875 
L 19.671875 8.296875 
L 56.78125 8.296875 
L 56.78125 0 
L 9.8125 0 
z
" id="DejaVuSans-69"/>
     </defs>
     <g transform="translate(19.3575 187.6835)rotate(-90)scale(0.16 -0.16)">
      <use xlink:href="#DejaVuSans-82"/>
      <use x="69.451172" xlink:href="#DejaVuSans-97"/>
      <use x="130.730469" xlink:href="#DejaVuSans-116"/>
      <use x="169.939453" xlink:href="#DejaVuSans-101"/>
      <use x="231.462891" xlink:href="#DejaVuSans-32"/>
      <use x="263.25" xlink:href="#DejaVuSans-111"/>
      <use x="324.431641" xlink:href="#DejaVuSans-102"/>
      <use x="359.636719" xlink:href="#DejaVuSans-32"/>
      <use x="391.423828" xlink:href="#DejaVuSans-67"/>
      <use x="461.248047" xlink:href="#DejaVuSans-86"/>
      <use x="529.65625" xlink:href="#DejaVuSans-69"/>
     </g>
    </g>
   </g>
   <g id="patch_103">
    <path d="M 59.13 273.312 
L 59.13 7.2 
" style="fill:none;stroke:#000000;stroke-linecap:square;stroke-linejoin:miter;stroke-width:0.8;"/>
   </g>
   <g id="patch_104">
    <path d="M 416.25 273.312 
L 416.25 7.2 
" style="fill:none;stroke:#000000;stroke-linecap:square;stroke-linejoin:miter;stroke-width:0.8;"/>
   </g>
   <g id="patch_105">
    <path d="M 59.13 273.312 
L 416.25 273.312 
" style="fill:none;stroke:#000000;stroke-linecap:square;stroke-linejoin:miter;stroke-width:0.8;"/>
   </g>
   <g id="patch_106">
    <path d="M 59.13 7.2 
L 416.25 7.2 
" style="fill:none;stroke:#000000;stroke-linecap:square;stroke-linejoin:miter;stroke-width:0.8;"/>
   </g>
   <g id="legend_1">
    <g id="patch_107">
     <path d="M 437.306 223.365 
L 561.921 223.365 
Q 565.121 223.365 565.121 220.165 
L 565.121 10.4 
Q 565.121 7.2 561.921 7.2 
L 437.306 7.2 
Q 434.106 7.2 434.106 10.4 
L 434.106 220.165 
Q 434.106 223.365 437.306 223.365 
z
" style="fill:#ffffff;opacity:0.8;stroke:#cccccc;stroke-linejoin:miter;"/>
    </g>
    <g id="patch_108">
     <path d="M 440.506 25.7575 
L 472.506 25.7575 
L 472.506 14.5575 
L 440.506 14.5575 
z
" style="fill:#17becf;"/>
    </g>
    <g id="text_11">
     <!-- CWE-255 -->
     <defs>
      <path d="M 3.328125 72.90625 
L 13.28125 72.90625 
L 28.609375 11.28125 
L 43.890625 72.90625 
L 54.984375 72.90625 
L 70.3125 11.28125 
L 85.59375 72.90625 
L 95.609375 72.90625 
L 77.296875 0 
L 64.890625 0 
L 49.515625 63.28125 
L 33.984375 0 
L 21.578125 0 
z
" id="DejaVuSans-87"/>
      <path d="M 4.890625 31.390625 
L 31.203125 31.390625 
L 31.203125 23.390625 
L 4.890625 23.390625 
z
" id="DejaVuSans-45"/>
      <path d="M 10.796875 72.90625 
L 49.515625 72.90625 
L 49.515625 64.59375 
L 19.828125 64.59375 
L 19.828125 46.734375 
Q 21.96875 47.46875 24.109375 47.828125 
Q 26.265625 48.1875 28.421875 48.1875 
Q 40.625 48.1875 47.75 41.5 
Q 54.890625 34.8125 54.890625 23.390625 
Q 54.890625 11.625 47.5625 5.09375 
Q 40.234375 -1.421875 26.90625 -1.421875 
Q 22.3125 -1.421875 17.546875 -0.640625 
Q 12.796875 0.140625 7.71875 1.703125 
L 7.71875 11.625 
Q 12.109375 9.234375 16.796875 8.0625 
Q 21.484375 6.890625 26.703125 6.890625 
Q 35.15625 6.890625 40.078125 11.328125 
Q 45.015625 15.765625 45.015625 23.390625 
Q 45.015625 31 40.078125 35.4375 
Q 35.15625 39.890625 26.703125 39.890625 
Q 22.75 39.890625 18.8125 39.015625 
Q 14.890625 38.140625 10.796875 36.28125 
z
" id="DejaVuSans-53"/>
     </defs>
     <g transform="translate(485.306 25.7575)scale(0.16 -0.16)">
      <use xlink:href="#DejaVuSans-67"/>
      <use x="69.824219" xlink:href="#DejaVuSans-87"/>
      <use x="168.701172" xlink:href="#DejaVuSans-69"/>
      <use x="231.884766" xlink:href="#DejaVuSans-45"/>
      <use x="267.96875" xlink:href="#DejaVuSans-50"/>
      <use x="331.591797" xlink:href="#DejaVuSans-53"/>
      <use x="395.214844" xlink:href="#DejaVuSans-53"/>
     </g>
    </g>
    <g id="patch_109">
     <path d="M 440.506 49.2425 
L 472.506 49.2425 
L 472.506 38.0425 
L 440.506 38.0425 
z
" style="fill:#bcbd22;"/>
    </g>
    <g id="text_12">
     <!-- CWE-119 -->
     <defs>
      <path d="M 10.984375 1.515625 
L 10.984375 10.5 
Q 14.703125 8.734375 18.5 7.8125 
Q 22.3125 6.890625 25.984375 6.890625 
Q 35.75 6.890625 40.890625 13.453125 
Q 46.046875 20.015625 46.78125 33.40625 
Q 43.953125 29.203125 39.59375 26.953125 
Q 35.25 24.703125 29.984375 24.703125 
Q 19.046875 24.703125 12.671875 31.3125 
Q 6.296875 37.9375 6.296875 49.421875 
Q 6.296875 60.640625 12.9375 67.421875 
Q 19.578125 74.21875 30.609375 74.21875 
Q 43.265625 74.21875 49.921875 64.515625 
Q 56.59375 54.828125 56.59375 36.375 
Q 56.59375 19.140625 48.40625 8.859375 
Q 40.234375 -1.421875 26.421875 -1.421875 
Q 22.703125 -1.421875 18.890625 -0.6875 
Q 15.09375 0.046875 10.984375 1.515625 
z
M 30.609375 32.421875 
Q 37.25 32.421875 41.125 36.953125 
Q 45.015625 41.5 45.015625 49.421875 
Q 45.015625 57.28125 41.125 61.84375 
Q 37.25 66.40625 30.609375 66.40625 
Q 23.96875 66.40625 20.09375 61.84375 
Q 16.21875 57.28125 16.21875 49.421875 
Q 16.21875 41.5 20.09375 36.953125 
Q 23.96875 32.421875 30.609375 32.421875 
z
" id="DejaVuSans-57"/>
     </defs>
     <g transform="translate(485.306 49.2425)scale(0.16 -0.16)">
      <use xlink:href="#DejaVuSans-67"/>
      <use x="69.824219" xlink:href="#DejaVuSans-87"/>
      <use x="168.701172" xlink:href="#DejaVuSans-69"/>
      <use x="231.884766" xlink:href="#DejaVuSans-45"/>
      <use x="267.96875" xlink:href="#DejaVuSans-49"/>
      <use x="331.591797" xlink:href="#DejaVuSans-49"/>
      <use x="395.214844" xlink:href="#DejaVuSans-57"/>
     </g>
    </g>
    <g id="patch_110">
     <path d="M 440.506 72.7275 
L 472.506 72.7275 
L 472.506 61.5275 
L 440.506 61.5275 
z
" style="fill:#e377c2;"/>
    </g>
    <g id="text_13">
     <!-- CWE-264 -->
     <g transform="translate(485.306 72.7275)scale(0.16 -0.16)">
      <use xlink:href="#DejaVuSans-67"/>
      <use x="69.824219" xlink:href="#DejaVuSans-87"/>
      <use x="168.701172" xlink:href="#DejaVuSans-69"/>
      <use x="231.884766" xlink:href="#DejaVuSans-45"/>
      <use x="267.96875" xlink:href="#DejaVuSans-50"/>
      <use x="331.591797" xlink:href="#DejaVuSans-54"/>
      <use x="395.214844" xlink:href="#DejaVuSans-52"/>
     </g>
    </g>
    <g id="patch_111">
     <path d="M 440.506 96.2125 
L 472.506 96.2125 
L 472.506 85.0125 
L 440.506 85.0125 
z
" style="fill:#8c564b;"/>
    </g>
    <g id="text_14">
     <!-- CWE-310 -->
     <defs>
      <path d="M 40.578125 39.3125 
Q 47.65625 37.796875 51.625 33 
Q 55.609375 28.21875 55.609375 21.1875 
Q 55.609375 10.40625 48.1875 4.484375 
Q 40.765625 -1.421875 27.09375 -1.421875 
Q 22.515625 -1.421875 17.65625 -0.515625 
Q 12.796875 0.390625 7.625 2.203125 
L 7.625 11.71875 
Q 11.71875 9.328125 16.59375 8.109375 
Q 21.484375 6.890625 26.8125 6.890625 
Q 36.078125 6.890625 40.9375 10.546875 
Q 45.796875 14.203125 45.796875 21.1875 
Q 45.796875 27.640625 41.28125 31.265625 
Q 36.765625 34.90625 28.71875 34.90625 
L 20.21875 34.90625 
L 20.21875 43.015625 
L 29.109375 43.015625 
Q 36.375 43.015625 40.234375 45.921875 
Q 44.09375 48.828125 44.09375 54.296875 
Q 44.09375 59.90625 40.109375 62.90625 
Q 36.140625 65.921875 28.71875 65.921875 
Q 24.65625 65.921875 20.015625 65.03125 
Q 15.375 64.15625 9.8125 62.3125 
L 9.8125 71.09375 
Q 15.4375 72.65625 20.34375 73.4375 
Q 25.25 74.21875 29.59375 74.21875 
Q 40.828125 74.21875 47.359375 69.109375 
Q 53.90625 64.015625 53.90625 55.328125 
Q 53.90625 49.265625 50.4375 45.09375 
Q 46.96875 40.921875 40.578125 39.3125 
z
" id="DejaVuSans-51"/>
     </defs>
     <g transform="translate(485.306 96.2125)scale(0.16 -0.16)">
      <use xlink:href="#DejaVuSans-67"/>
      <use x="69.824219" xlink:href="#DejaVuSans-87"/>
      <use x="168.701172" xlink:href="#DejaVuSans-69"/>
      <use x="231.884766" xlink:href="#DejaVuSans-45"/>
      <use x="267.96875" xlink:href="#DejaVuSans-51"/>
      <use x="331.591797" xlink:href="#DejaVuSans-49"/>
      <use x="395.214844" xlink:href="#DejaVuSans-48"/>
     </g>
    </g>
    <g id="patch_112">
     <path d="M 440.506 119.6975 
L 472.506 119.6975 
L 472.506 108.4975 
L 440.506 108.4975 
z
" style="fill:#9467bd;"/>
    </g>
    <g id="text_15">
     <!-- CWE-89 -->
     <g transform="translate(485.306 119.6975)scale(0.16 -0.16)">
      <use xlink:href="#DejaVuSans-67"/>
      <use x="69.824219" xlink:href="#DejaVuSans-87"/>
      <use x="168.701172" xlink:href="#DejaVuSans-69"/>
      <use x="231.884766" xlink:href="#DejaVuSans-45"/>
      <use x="267.96875" xlink:href="#DejaVuSans-56"/>
      <use x="331.591797" xlink:href="#DejaVuSans-57"/>
     </g>
    </g>
    <g id="patch_113">
     <path d="M 440.506 143.1825 
L 472.506 143.1825 
L 472.506 131.9825 
L 440.506 131.9825 
z
" style="fill:#d62728;"/>
    </g>
    <g id="text_16">
     <!-- CWE-352 -->
     <g transform="translate(485.306 143.1825)scale(0.16 -0.16)">
      <use xlink:href="#DejaVuSans-67"/>
      <use x="69.824219" xlink:href="#DejaVuSans-87"/>
      <use x="168.701172" xlink:href="#DejaVuSans-69"/>
      <use x="231.884766" xlink:href="#DejaVuSans-45"/>
      <use x="267.96875" xlink:href="#DejaVuSans-51"/>
      <use x="331.591797" xlink:href="#DejaVuSans-53"/>
      <use x="395.214844" xlink:href="#DejaVuSans-50"/>
     </g>
    </g>
    <g id="patch_114">
     <path d="M 440.506 166.6675 
L 472.506 166.6675 
L 472.506 155.4675 
L 440.506 155.4675 
z
" style="fill:#2ca02c;"/>
    </g>
    <g id="text_17">
     <!-- CWE-20 -->
     <g transform="translate(485.306 166.6675)scale(0.16 -0.16)">
      <use xlink:href="#DejaVuSans-67"/>
      <use x="69.824219" xlink:href="#DejaVuSans-87"/>
      <use x="168.701172" xlink:href="#DejaVuSans-69"/>
      <use x="231.884766" xlink:href="#DejaVuSans-45"/>
      <use x="267.96875" xlink:href="#DejaVuSans-50"/>
      <use x="331.591797" xlink:href="#DejaVuSans-48"/>
     </g>
    </g>
    <g id="patch_115">
     <path d="M 440.506 190.1525 
L 472.506 190.1525 
L 472.506 178.9525 
L 440.506 178.9525 
z
" style="fill:#ff7f0e;"/>
    </g>
    <g id="text_18">
     <!-- CWE-200 -->
     <g transform="translate(485.306 190.1525)scale(0.16 -0.16)">
      <use xlink:href="#DejaVuSans-67"/>
      <use x="69.824219" xlink:href="#DejaVuSans-87"/>
      <use x="168.701172" xlink:href="#DejaVuSans-69"/>
      <use x="231.884766" xlink:href="#DejaVuSans-45"/>
      <use x="267.96875" xlink:href="#DejaVuSans-50"/>
      <use x="331.591797" xlink:href="#DejaVuSans-48"/>
      <use x="395.214844" xlink:href="#DejaVuSans-48"/>
     </g>
    </g>
    <g id="patch_116">
     <path d="M 440.506 213.6375 
L 472.506 213.6375 
L 472.506 202.4375 
L 440.506 202.4375 
z
" style="fill:#1f77b4;"/>
    </g>
    <g id="text_19">
     <!-- CWE-79 -->
     <defs>
      <path d="M 8.203125 72.90625 
L 55.078125 72.90625 
L 55.078125 68.703125 
L 28.609375 0 
L 18.3125 0 
L 43.21875 64.59375 
L 8.203125 64.59375 
z
" id="DejaVuSans-55"/>
     </defs>
     <g transform="translate(485.306 213.6375)scale(0.16 -0.16)">
      <use xlink:href="#DejaVuSans-67"/>
      <use x="69.824219" xlink:href="#DejaVuSans-87"/>
      <use x="168.701172" xlink:href="#DejaVuSans-69"/>
      <use x="231.884766" xlink:href="#DejaVuSans-45"/>
      <use x="267.96875" xlink:href="#DejaVuSans-55"/>
      <use x="331.591797" xlink:href="#DejaVuSans-57"/>
     </g>
    </g>
   </g>
  </g>
 </g>
 <defs>
  <clipPath id="p5012f268b0">
   <rect height="266.112" width="357.12" x="59.13" y="7.2"/>
  </clipPath>
 </defs>
</svg>
